<?xml version="1.0" encoding="iso-8859-1"?>
<!-- Generator: Adobe Illustrator 19.0.0, SVG Export Plug-In . SVG Version: 6.00 Build 0)  -->
<svg version="1.1" id="Layer_1" xmlns="http://www.w3.org/2000/svg" xmlns:xlink="http://www.w3.org/1999/xlink" x="0px" y="0px"
	 viewBox="0 0 512.001 512.001" style="enable-background:new 0 0 512.001 512.001;" xml:space="preserve">
<g>
	<g>
		<path d="M512.001,22.277c-0.001-9.221-7.476-16.696-16.696-16.696h-33.389c-32.824,0-61.27,19.051-74.897,46.669
			C359.634,23.515,321.009,5.581,278.276,5.581c-82.828,0-150.251,67.404-150.251,150.251c0,46.145,21.067,88.95,56.497,117.319
			c-12.879,1.129-25.164,4.353-36.514,9.332l-39.776-39.777c-0.001,0-0.001-0.001-0.001-0.001l-0.002-0.001l-22.753-22.753
			c-19.527-19.527-51.3-19.527-70.828,0c-19.528,19.528-19.528,51.301,0,70.829l67.54,67.541
			c-2.762,9.948-4.245,20.421-4.245,31.234v100.167c0,9.22,7.475,16.695,16.695,16.695h367.28c9.22,0,16.695-7.475,16.695-16.695
			V389.557c0-60.973-46.94-111.18-106.58-116.405c35.17-28.164,56.497-70.854,56.497-117.319c0-12.647-1.578-24.931-4.534-36.674
			c-0.223-1.113-2.012-7.636-4.059-13.41h8.594C474.555,105.75,512.001,68.304,512.001,22.277z M278.276,38.97
			c46.524,0,86.782,27.331,105.571,66.778H172.705C191.494,66.301,231.75,38.97,278.276,38.97z M38.254,267.172
			c-6.509-6.51-6.509-17.101,0-23.609c6.511-6.51,17.102-6.51,23.611-0.001l10.949,10.949l-23.611,23.611L38.254,267.172z
			 M72.813,301.731l23.611-23.611l22.573,22.573c-8.505,7.265-15.957,15.728-22.096,25.124L72.813,301.731z M111.33,473.029v-83.473
			c0-20.304,6.019-28.128,6.751-32.862c12.281-28.562,35.242-39.154,37.05-40.564c5.387-2.922,11.138-5.248,17.153-6.935
			l81.621,81.62l-82.214,82.214H111.33z M216.391,306.083h122.244l-61.122,61.122L216.391,306.083z M383.081,308.857
			c35.724,9.452,62.14,42.044,62.14,80.699v83.473H218.91L383.081,308.857z M278.276,272.694
			c-46.524,0-86.782-27.331-105.571-66.778h211.142C365.056,245.363,324.8,272.694,278.276,272.694z M393.94,172.527h-82.275
			h-66.778h0h-82.275c-0.784-5.455-1.198-11.026-1.198-16.695c0-5.668,0.414-11.24,1.198-16.695h65.581v16.695
			c0,9.22,7.475,16.695,16.695,16.695s16.695-7.475,16.695-16.695v-16.695h33.389v16.695c0,9.22,7.474,16.695,16.695,16.695
			c9.221,0,16.695-7.475,16.695-16.695v-16.695h65.581c0.784,5.455,1.198,11.026,1.198,16.695
			C395.138,161.501,394.724,167.072,393.94,172.527z M414.692,72.36c6.89-19.434,25.458-33.389,47.223-33.389h13.834
			c-6.891,19.434-25.458,33.389-47.223,33.389H414.692z"/>
	</g>
</g>
<g>
</g>
<g>
</g>
<g>
</g>
<g>
</g>
<g>
</g>
<g>
</g>
<g>
</g>
<g>
</g>
<g>
</g>
<g>
</g>
<g>
</g>
<g>
</g>
<g>
</g>
<g>
</g>
<g>
</g>
</svg>
